<?xml version="1.0" encoding="utf-8"?>
<!-- Generator: Adobe Illustrator 24.2.3, SVG Export Plug-In . SVG Version: 6.00 Build 0)  -->
<svg version="1.1" id="Слой_1" xmlns="http://www.w3.org/2000/svg" xmlns:xlink="http://www.w3.org/1999/xlink" x="0px" y="0px"
	 viewBox="0 0 30 36" style="enable-background:new 0 0 30 36;" xml:space="preserve">
<style type="text/css">
	.st0{fill-rule:evenodd;clip-rule:evenodd;fill:#5F6063;}
</style>
<path id="apple_icon_copy_4" class="st0" d="M21.6,0c-2.1,0.3-4,1.3-5.3,3c-1.4,1.6-2,3.6-1.8,5.7c2.1-0.1,4.1-1.1,5.4-2.8
	C21.2,4.2,21.8,2.1,21.6,0z M29,12.1c-1.6-2.2-4-3.5-6.7-3.7c-3.1,0-4.5,1.5-6.7,1.5c-2.3,0-4-1.5-6.7-1.5C5.9,8.6,3.1,10.3,1.6,13
	c-2.5,4-2.1,11.6,2,18.1C5.1,33.4,7,36,9.6,36c2.3,0,2.9-1.5,6-1.5s3.7,1.5,6,1.5c2.6,0,4.6-2.9,6.1-5.2c0.9-1.4,1.7-2.8,2.3-4.4
	C24,24.1,23.1,15.4,29,12.1z"/>
</svg>
