<svg width="15" height="10" viewBox="0 0 15 10" fill="none" xmlns="http://www.w3.org/2000/svg">
<path fill-rule="evenodd" clip-rule="evenodd" d="M0.292893 5.74485C-0.0976311 5.35432 -0.097631 4.72116 0.292893 4.33063L4.31818 0.305345C4.70871 -0.0851796 5.34187 -0.0851802 5.7324 0.305344C6.12292 0.695868 6.12292 1.32903 5.7324 1.71956L3.45193 4.00002H13.9637C14.516 4.00002 14.9637 4.44773 14.9637 5.00002C14.9637 5.5523 14.516 6.00002 13.9637 6.00002H3.37796L5.66527 8.28733C6.0558 8.67785 6.0558 9.31102 5.66527 9.70154C5.27475 10.0921 4.64158 10.0921 4.25106 9.70154L0.326131 5.77662C0.31487 5.76633 0.303787 5.75574 0.292893 5.74485Z" fill="white"/>
</svg>
