<svg xmlns="http://www.w3.org/2000/svg" version="1.1" id="Capa_1" x="0" y="0" width="512" height="512" viewBox="0 0 612 612" xml:space="preserve"><script/><path d="M114.75 401.625V153H76.5C34.253 153 0 187.253 0 229.5v306C0 577.747 34.253 612 76.5 612h306c42.247 0 76.5-34.253 76.5-76.5v-38.25H210.375c-42.247 0-95.625-53.378-95.625-95.625zM535.5 0h-306C187.253 0 153 34.253 153 76.5v306c0 42.247 34.253 76.5 76.5 76.5h306c42.247 0 76.5-34.253 76.5-76.5v-306C612 34.253 577.747 0 535.5 0z" data-original="#000000" class="active-path" fill="#1d3548" id="_x33__5_"/></svg>