<svg width="200" height="200" viewBox="0 0 200 200" fill="none" xmlns="http://www.w3.org/2000/svg">
<g clip-path="url(#clip0)">
<path d="M200 0H0V200H200V0Z" fill="#0B3EAA"/>
<path d="M26.6282 10.0755L9.27124 7.88825C7.53554 7.67658 5.94096 8.91838 5.72929 10.6541C5.51762 12.4039 6.74531 13.9843 8.49511 14.2101H8.53745L25.8521 16.3974C27.5877 16.6091 29.1823 15.3814 29.394 13.6316C29.4222 13.3776 29.4222 13.1377 29.394 12.8978C29.2388 11.4584 28.1099 10.259 26.6282 10.0755Z" fill="#0898E8"/>
<path d="M69.7664 0L58.7455 6.13843C57.2215 6.99922 56.657 8.93248 57.5178 10.4565C57.6448 10.6823 57.7859 10.8657 57.9553 11.0492C58.9289 12.1075 60.5376 12.4039 61.85 11.6842L77.1326 3.17505C78.2897 2.52593 78.8824 1.2418 78.7271 0H69.7664ZM140.309 61.1162C139.378 60.0296 137.797 59.8603 136.668 60.6788L136.414 60.8622L130.911 64.7005L128.935 62.4144L126.296 59.3382C125.365 58.2657 123.785 58.0823 122.656 58.9007L122.402 59.0842L114.866 64.3195C113.709 65.1238 113.356 66.6761 114.034 67.8896C114.076 67.9743 114.132 68.0449 114.175 68.1154C115.036 69.3572 116.729 69.6677 117.971 68.8069L121.47 66.3797L123.771 64.771L128.004 69.6959L128.371 70.1192C129.274 71.1635 130.826 71.3893 131.983 70.5708L135.483 68.1437L137.783 66.5491L142.002 71.4457L142.383 71.8973C143.357 73.0262 145.079 73.1673 146.222 72.1795C147.365 71.1917 147.492 69.4701 146.504 68.3271L140.309 61.1162ZM181.599 74.3809C180.667 73.0685 178.903 72.6875 177.521 73.4072C177.394 73.4777 177.281 73.5483 177.168 73.633C175.743 74.649 175.404 76.6387 176.42 78.0639C177.267 79.2775 177.69 80.6886 177.69 82.0998C177.69 83.4968 177.238 84.9079 176.378 86.1215C175.362 87.5185 173.936 88.4358 172.37 88.8027C170.959 89.1413 169.449 89.0284 168.038 88.4358C167.897 88.3652 167.741 88.3088 167.586 88.2241C166.697 87.7725 165.709 87.7725 164.863 88.1394C164.214 88.4216 163.635 88.9297 163.296 89.607C162.492 91.1734 163.113 93.0925 164.665 93.8969C165.469 94.3061 166.302 94.6306 167.149 94.8705C169.364 95.4914 171.664 95.5197 173.838 94.9975C176.843 94.2779 179.595 92.5281 181.514 89.8751C183.179 87.575 184.026 84.8656 184.04 82.1421C184.054 79.4186 183.236 76.7092 181.599 74.3809ZM74.014 197.629L73.9857 197.643L69.7664 200H78.7271C78.6848 199.605 78.5578 199.224 78.3461 198.857C77.4853 197.319 75.5521 196.769 74.014 197.629Z" fill="#0898E8"/>
<path d="M166.81 18.2319L164.82 0.804347V0.790235L164.736 0H158.329L158.499 1.52403H158.513L159.246 7.98702L154.364 5.87032L147.308 2.80816L151.062 0H140.38L134.636 4.24752L161.928 16.101L166.81 18.2319ZM197.968 38.9332C196.416 39.5118 195.583 41.1487 195.978 42.715C196.007 42.8138 196.035 42.9126 196.077 43.0114C196.67 44.606 198.391 45.4527 200 44.9588V38.1712L197.968 38.9332ZM79.9548 68.6799L78.5578 72.0949L71.6292 89.0567L90.0868 96.6063L92.0059 97.3965L100.332 77.0197L82.6642 69.7947L79.9548 68.6799ZM92.7115 80.2089L88.8027 89.7623L86.8835 88.972L79.2493 85.8534L81.7611 79.715L83.1581 76.3001L92.7115 80.2089ZM43.2371 163.268C39.3424 163.268 35.8005 164.849 33.2463 167.403C32.696 167.953 32.2021 168.532 31.7646 169.153C30.0995 171.467 29.1117 174.317 29.1117 177.394C29.1117 181.303 30.6922 184.83 33.2463 187.385C35.8005 189.939 39.3424 191.533 43.2371 191.533C46.5533 191.533 49.5872 190.39 52.0003 188.485C52.4377 188.147 52.847 187.78 53.2421 187.385C55.7962 184.83 57.3767 181.288 57.3767 177.394C57.3767 173.485 55.7962 169.957 53.2421 167.389C50.6738 164.863 47.146 163.268 43.2371 163.268ZM48.7265 182.897C48.3031 183.321 47.8233 183.702 47.3012 184.026C46.1159 184.76 44.7329 185.169 43.2371 185.169C41.0922 185.169 39.159 184.294 37.7619 182.897C36.3508 181.5 35.49 179.553 35.49 177.408C35.49 176.039 35.8428 174.769 36.4637 173.654C36.8165 173.019 37.2539 172.441 37.7619 171.933C39.159 170.536 41.0922 169.661 43.2371 169.661C45.3821 169.661 47.3153 170.536 48.7265 171.933C50.1235 173.33 50.9984 175.277 50.9984 177.422C50.9984 179.553 50.1235 181.486 48.7265 182.897ZM31.1296 56.9393C32.7101 56.1632 33.3451 54.2581 32.569 52.6777L27.6441 42.7292C26.9103 41.2334 25.1746 40.5842 23.6506 41.1628L23.3119 41.2898L15.974 44.0133L14.4077 40.8524L12.3192 36.6331C11.5854 35.1514 9.84971 34.4881 8.32569 35.0667L7.98702 35.1937L0 38.1712V44.9588C0.0564454 44.9446 0.112891 44.9305 0.169336 44.9023L4.82608 43.1666L7.88824 42.0236L11.2467 48.8253L11.5431 49.4038C12.2486 50.8432 13.9561 51.5488 15.4943 50.9702L20.151 49.2486L23.2132 48.1056L26.5575 54.879L26.868 55.4999C27.6441 57.0663 29.5491 57.7154 31.1296 56.9393ZM162.831 183.363L158.555 186.538L148.734 193.805V193.819L140.38 200.014H151.062L152.515 198.942V198.956L153.461 198.25L157.737 195.075L158.301 200.028H164.708L163.438 188.866L162.831 183.363ZM176.067 123.742H176.025L158.95 120.172C157.229 119.819 155.549 120.92 155.197 122.642C155.154 122.896 155.126 123.136 155.126 123.376C155.168 124.815 156.184 126.099 157.652 126.409L174.769 129.994C176.491 130.347 178.17 129.246 178.523 127.524C178.889 125.789 177.775 124.109 176.067 123.742Z" fill="#FFC047"/>
<path d="M199.802 116.616C199.252 117.166 198.758 117.745 198.321 118.366C196.656 120.68 195.668 123.531 195.668 126.607C195.668 130.516 197.248 134.044 199.802 136.598C199.873 136.668 199.929 136.725 200 136.795V116.419C199.929 116.475 199.873 116.546 199.802 116.616ZM97.6787 179.228L93.4171 178.367L90.623 177.803L91.258 171.213L91.3145 170.648C91.4556 169.251 90.5101 167.953 89.1131 167.671L84.8656 166.81L82.0715 166.246L82.7066 159.684L82.763 159.091C82.9041 157.567 81.7893 156.213 80.2653 156.071C78.7413 155.93 77.3866 157.045 77.2314 158.569L76.3 168.207C76.1589 169.647 77.1467 170.931 78.5437 171.199L78.8542 171.255L85.557 172.61L85.2607 175.672L84.8656 179.764C84.7245 181.204 85.7123 182.488 87.1093 182.756L87.4197 182.812L96.5639 184.661C97.975 184.943 99.3579 184.111 99.7813 182.77C99.8095 182.685 99.8236 182.587 99.8518 182.502C100.148 180.992 99.1745 179.524 97.6787 179.228ZM9.79327 112.467C5.99732 112.467 2.54004 113.977 0 116.419V136.809C2.54004 139.251 5.99732 140.761 9.79327 140.761C13.1094 140.761 16.1434 139.618 18.5564 137.713C18.9939 137.374 19.4031 137.007 19.7982 136.612C22.3524 134.058 23.9328 130.516 23.9328 126.621C23.9328 122.712 22.3524 119.184 19.7982 116.616C17.2299 114.062 13.7021 112.467 9.79327 112.467ZM15.2826 132.096C14.8592 132.52 14.3795 132.901 13.8573 133.225C12.672 133.959 11.2891 134.368 9.79327 134.368C7.64835 134.368 5.71509 133.493 4.31807 132.096C2.90694 130.699 2.04614 128.752 2.04614 126.607C2.04614 125.238 2.39893 123.968 3.01983 122.853C3.37261 122.218 3.81006 121.64 4.31807 121.132C5.71509 119.735 7.64835 118.86 9.79327 118.86C11.9382 118.86 13.8714 119.735 15.2826 121.132C16.6796 122.529 17.5545 124.476 17.5545 126.621C17.5545 128.752 16.6796 130.685 15.2826 132.096Z" fill="#F67261"/>
<path d="M162.549 150.836C161.152 148.367 159.035 146.476 156.551 145.347C154.082 144.204 151.274 143.837 148.466 144.373C146.885 144.684 145.798 146.123 145.897 147.689C145.911 147.83 145.925 147.971 145.954 148.098C146.292 149.82 147.972 150.949 149.679 150.61C151.133 150.328 152.6 150.54 153.884 151.132C155.154 151.711 156.255 152.699 157.003 153.997C157.85 155.493 158.089 157.172 157.793 158.753C157.525 160.178 156.791 161.504 155.662 162.534C155.535 162.647 155.422 162.746 155.295 162.859C154.519 163.48 154.11 164.369 154.082 165.3C154.068 166.006 154.294 166.74 154.759 167.332C155.846 168.715 157.85 168.955 159.232 167.854C159.938 167.29 160.587 166.669 161.152 165.992C162.633 164.228 163.607 162.153 164.03 159.952C164.637 156.918 164.171 153.687 162.549 150.836ZM10.4143 91.004L6.3079 74.0563C5.88456 72.3488 4.17709 71.3046 2.46962 71.7138C2.22973 71.7703 2.00395 71.8549 1.77816 71.9678C0.494032 72.6311 -0.225646 74.0986 0.141248 75.5521L4.26176 92.5421C4.6851 94.2496 6.40668 95.2939 8.10004 94.8846C9.80752 94.4613 10.8518 92.7397 10.4425 91.0463L10.4143 91.004ZM102.956 131.645L92.4294 117.731C91.3711 116.334 89.3672 116.052 87.9702 117.124C87.7727 117.279 87.5892 117.449 87.4481 117.632C86.5309 118.747 86.4603 120.384 87.3634 121.569L97.9187 135.511C98.9771 136.908 100.981 137.176 102.378 136.118C103.775 135.06 104.043 133.056 102.985 131.659L102.956 131.645ZM107.021 11.0068C103.126 11.0068 99.5838 12.5873 97.0297 15.1415C96.4794 15.6918 95.9855 16.2704 95.548 16.8913C93.8829 19.2055 92.8951 22.056 92.8951 25.1323C92.8951 29.0411 94.4755 32.569 97.0297 35.1231C99.5838 37.6773 103.126 39.2718 107.021 39.2718C110.337 39.2718 113.371 38.1288 115.784 36.2238C116.221 35.8851 116.63 35.5182 117.025 35.1231C119.58 32.569 121.16 29.027 121.16 25.1323C121.16 21.2234 119.58 17.6956 117.025 15.1273C114.457 12.6014 110.929 11.0068 107.021 11.0068ZM112.51 30.6357C112.086 31.059 111.607 31.4401 111.085 31.7646C109.899 32.4984 108.516 32.9076 107.021 32.9076C104.876 32.9076 102.942 32.0327 101.545 30.6357C100.134 29.2387 99.2734 27.2913 99.2734 25.1464C99.2734 23.7776 99.6262 22.5076 100.247 21.3928C100.6 20.7578 101.037 20.1792 101.545 19.6712C102.942 18.2742 104.876 17.3993 107.021 17.3993C109.165 17.3993 111.099 18.2742 112.51 19.6712C113.907 21.0682 114.782 23.0156 114.782 25.1605C114.782 27.2913 113.907 29.2246 112.51 30.6357Z" fill="#FFC047"/>
<path d="M191.124 166.302L200.014 169.929V163.071L190.588 159.218L187.653 158.019L186.129 161.716L178.593 180.145L198.645 188.344L200 188.894V174.19L197.248 180.907L195.174 180.061L186.876 176.66L189.614 169.985L191.124 166.302ZM52.0991 84.0048L36.1674 76.7939C34.5728 76.0742 32.6819 76.7939 31.9622 78.3885C31.2425 79.9972 31.9481 81.874 33.5568 82.5936L33.585 82.6078L49.4744 89.8045C51.0689 90.5242 52.9599 89.8186 53.6795 88.21C53.7783 87.9842 53.8489 87.7443 53.9053 87.5044C54.1734 86.1074 53.4538 84.6257 52.0991 84.0048ZM0 169.929L1.4958 170.535L0 174.204V188.908L0.73379 189.205L9.77916 167.064L0 163.056V169.929Z" fill="#0898E8"/>
<path d="M136.217 94.8705L141.142 99.7954C142.877 101.531 142.877 104.41 141.142 106.23C140.845 106.526 140.605 106.766 140.38 106.992C139.476 107.825 138.037 107.825 137.275 106.922C136.668 106.315 136.443 105.327 136.739 104.494C136.894 104.113 136.894 104.198 137.12 103.662C137.416 103.055 137.275 102.152 136.668 101.686L132.957 97.975L129.246 94.3343C128.71 93.798 127.877 93.7275 127.27 93.8827C126.663 94.179 126.734 94.179 126.438 94.2637C125.676 94.56 124.702 94.4189 124.01 93.7275C123.178 92.8949 123.107 91.4556 123.94 90.623C124.236 90.3267 124.476 90.0868 124.702 89.861C126.438 88.1253 129.316 88.1253 131.137 89.861L136.217 94.8705Z" fill="#F67261"/>
<path d="M121.753 109.476L118.041 105.764C117.505 105.228 117.435 104.48 117.59 103.874C117.66 103.648 117.886 103.196 117.971 103.041C118.352 102.208 118.126 101.305 117.435 100.543C116.602 99.7107 115.163 99.6401 114.33 100.473C114.034 100.769 113.794 101.009 113.568 101.235C111.832 102.97 111.832 105.849 113.568 107.67L118.493 112.594L123.418 117.519C125.154 119.255 128.032 119.255 129.853 117.519C130.149 117.223 130.389 116.983 130.615 116.757C131.447 115.854 131.447 114.415 130.544 113.653C129.937 113.046 128.879 112.82 128.046 113.116C127.821 113.187 127.44 113.413 127.214 113.498C126.607 113.723 125.774 113.568 125.323 113.046L121.753 109.476Z" fill="#F67261"/>
<path d="M135.384 115.769C136.443 116.828 138.192 116.828 139.251 115.769C140.309 114.711 140.309 112.961 139.251 111.903C136.217 108.869 136.372 109.024 133.338 105.99C132.28 104.932 130.53 104.932 129.472 105.99C128.413 107.049 128.413 108.798 129.472 109.857C132.59 112.82 132.435 112.665 135.384 115.769Z" fill="#F67261"/>
<path d="M121.301 101.531C122.359 102.589 124.109 102.589 125.168 101.531C126.226 100.473 126.226 98.7229 125.168 97.6645C122.134 94.6306 122.289 94.7858 119.255 91.7519C118.197 90.6935 116.447 90.6935 115.388 91.7519C114.33 92.8102 114.33 94.56 115.388 95.6184C118.422 98.6523 118.197 98.5818 121.301 101.531Z" fill="#F67261"/>
<path d="M66.4079 126.325L67.184 133.239C67.4521 135.695 65.66 137.938 63.1623 138.263C62.7389 138.305 62.4144 138.348 62.1039 138.376C60.8762 138.46 59.7473 137.557 59.7191 136.372C59.6203 135.525 60.0578 134.608 60.8198 134.142C61.1726 133.945 61.1302 134.001 61.6382 133.733C62.2591 133.451 62.6966 132.647 62.5131 131.913L61.9346 126.692L61.3137 121.541C61.229 120.793 60.6222 120.214 60.0578 119.96C59.3945 119.819 59.451 119.862 59.1687 119.735C58.3926 119.495 57.7153 118.761 57.6024 117.801C57.4754 116.63 58.308 115.459 59.4792 115.332C59.9025 115.29 60.2271 115.247 60.5375 115.219C62.9929 114.951 65.2366 116.743 65.5612 119.241L66.4079 126.325Z" fill="#48D6D5"/>
<path d="M45.9888 128.695L45.4103 123.474C45.3256 122.726 45.7348 122.091 46.2428 121.71C46.4404 121.583 46.9061 121.372 47.0613 121.301C47.8797 120.892 48.2607 120.031 48.2043 119.015C48.0773 117.844 46.9907 116.884 45.8195 117.011C45.3961 117.054 45.0716 117.096 44.7611 117.124C42.3058 117.392 40.5136 119.65 40.7394 122.148L41.5155 129.062L42.2917 135.977C42.5598 138.432 44.8176 140.224 47.3153 139.999C47.7386 139.956 48.0632 139.914 48.3736 139.886C49.5872 139.702 50.4903 138.573 50.2504 137.416C50.1517 136.569 49.4743 135.723 48.6276 135.441C48.4019 135.356 47.9644 135.299 47.7386 135.215C47.1177 135.017 46.5674 134.368 46.5392 133.677L45.9888 128.695Z" fill="#48D6D5"/>
<path d="M52.7056 142.129C52.875 143.625 54.2297 144.712 55.7255 144.542C57.2213 144.373 58.3078 143.018 58.1385 141.523C57.6587 137.261 57.6869 137.473 57.2213 133.225C57.0519 131.729 55.6972 130.643 54.2014 130.812C52.7056 130.981 51.6191 132.336 51.7884 133.832C52.3528 138.065 52.3387 137.854 52.7056 142.129Z" fill="#48D6D5"/>
<path d="M50.5892 122.204C50.7585 123.7 52.1132 124.787 53.609 124.617C55.1048 124.448 56.1914 123.093 56.0221 121.597C55.5423 117.336 55.5705 117.547 55.1048 113.3C54.9355 111.804 53.5808 110.718 52.085 110.887C50.5892 111.056 49.5026 112.411 49.6719 113.907C50.1517 118.168 50.0106 117.957 50.5892 122.204Z" fill="#48D6D5"/>
<path d="M71.3048 31.5106L76.2297 36.4355C77.9654 38.1712 77.9654 41.0499 76.2297 42.8703C75.9334 43.1666 75.6935 43.4065 75.4677 43.6323C74.5646 44.4648 73.1252 44.4648 72.3632 43.5617C71.7564 42.9549 71.5306 41.9671 71.827 41.1346C71.9822 40.7536 71.9822 40.8382 72.208 40.302C72.5043 39.6952 72.3632 38.7921 71.7564 38.3264L68.0451 34.6151L64.3339 30.9744C63.7976 30.4382 62.9651 30.3676 62.3583 30.5228C61.7515 30.8192 61.8221 30.8192 61.5257 30.9038C60.7637 31.2002 59.79 31.0591 59.0986 30.3676C58.266 29.535 58.1954 28.0957 59.028 27.2631C59.3243 26.9668 59.5642 26.7269 59.79 26.5011C61.5257 24.7654 64.4044 24.7654 66.2248 26.5011L71.3048 31.5106Z" fill="#48D6D5"/>
<path d="M56.8406 46.1159L53.1293 42.4046C52.5931 41.8684 52.5225 41.1205 52.6777 40.5137C52.7483 40.2879 52.9741 39.8363 53.0588 39.6811C53.4398 38.8486 53.214 37.9454 52.5225 37.1834C51.69 36.3508 50.2506 36.2803 49.418 37.1129C49.1217 37.4092 48.8818 37.6491 48.656 37.8749C46.9203 39.6106 46.9203 42.4893 48.656 44.3096L53.5809 49.2345L58.5057 54.1594C60.2414 55.8951 63.1201 55.8951 64.9405 54.1594C65.2368 53.863 65.4767 53.6231 65.7025 53.3974C66.5351 52.4942 66.5351 51.0549 65.632 50.2929C65.0252 49.6861 63.9668 49.4603 63.1342 49.7566C62.9085 49.8272 62.5275 50.053 62.3017 50.1376C61.6949 50.3634 60.8623 50.2082 60.4108 49.6861L56.8406 46.1159Z" fill="#48D6D5"/>
<path d="M70.472 52.4096C71.5304 53.4679 73.2802 53.4679 74.3385 52.4096C75.3969 51.3512 75.3969 49.6014 74.3385 48.543C71.3046 45.5091 71.4598 45.6643 68.4259 42.6304C67.3675 41.572 65.6177 41.572 64.5594 42.6304C63.501 43.6887 63.501 45.4385 64.5594 46.4969C67.678 49.4603 67.5228 49.3051 70.472 52.4096Z" fill="#48D6D5"/>
<path d="M56.389 38.1712C57.4474 39.2296 59.1972 39.2296 60.2555 38.1712C61.3139 37.1128 61.3139 35.363 60.2555 34.3047C57.2216 31.2707 57.3768 31.426 54.3429 28.392C53.2845 27.3337 51.5347 27.3337 50.4764 28.392C49.418 29.4504 49.418 31.2002 50.4764 32.2585C53.5103 35.2925 53.2845 35.2219 56.389 38.1712Z" fill="#48D6D5"/>
<path d="M169.068 53.3408L162.534 55.7538C160.22 56.6005 157.609 55.401 156.692 53.0585C156.537 52.6634 156.438 52.353 156.325 52.0566C155.944 50.8854 156.551 49.573 157.694 49.2626C158.499 48.9662 159.486 49.1779 160.121 49.7988C160.404 50.0951 160.333 50.0669 160.714 50.4903C161.137 51.0124 162.026 51.2664 162.69 50.8995L167.614 49.0791L172.469 47.2305C173.174 46.9765 173.583 46.2427 173.711 45.636C173.682 44.9586 173.654 45.0292 173.711 44.7187C173.753 43.9003 174.303 43.0677 175.206 42.7431C176.307 42.3339 177.648 42.8701 178.057 43.9708C178.212 44.3659 178.311 44.6764 178.424 44.9727C179.27 47.287 178.071 49.8976 175.728 50.8148L169.068 53.3408Z" fill="#48D6D5"/>
<path d="M161.829 34.0788L166.754 32.2585C167.459 32.0045 168.179 32.2443 168.659 32.6395C168.828 32.8088 169.153 33.2039 169.251 33.3309C169.844 34.0224 170.775 34.1917 171.749 33.8954C172.85 33.4861 173.527 32.2161 173.118 31.1013C172.963 30.7062 172.864 30.3958 172.751 30.0994C171.904 27.7852 169.28 26.5857 166.909 27.4042L160.375 29.8172L153.842 32.2302C151.527 33.0769 150.328 35.7016 151.146 38.0723C151.302 38.4674 151.4 38.7779 151.513 39.0742C151.993 40.2172 153.291 40.8099 154.364 40.3019C155.168 40.0056 155.817 39.1307 155.888 38.2558C155.916 38.0159 155.86 37.5784 155.888 37.3385C155.93 36.6894 156.424 35.998 157.087 35.8145L161.829 34.0788Z" fill="#48D6D5"/>
<path d="M150.427 43.8439C149.016 44.366 148.296 45.9465 148.818 47.3576C149.34 48.7687 150.921 49.4884 152.332 48.9663C156.354 47.4846 156.156 47.5551 160.164 46.0735C161.575 45.5513 162.294 43.9709 161.772 42.5597C161.25 41.1486 159.67 40.4289 158.259 40.951C154.279 42.5315 154.477 42.4468 150.427 43.8439Z" fill="#48D6D5"/>
<path d="M169.251 36.9999C167.84 37.522 167.12 39.1025 167.643 40.5136C168.165 41.9247 169.745 42.6444 171.156 42.1223C175.178 40.6406 174.98 40.7112 178.988 39.2295C180.399 38.7073 181.119 37.1269 180.597 35.7157C180.075 34.3046 178.494 33.5849 177.083 34.107C173.061 35.5887 173.231 35.4053 169.251 36.9999Z" fill="#48D6D5"/>
<path d="M126.325 170.253L120.878 173.64C118.945 174.839 116.362 174.233 115.092 172.285C114.881 171.947 114.725 171.693 114.57 171.453C114.02 170.465 114.316 169.167 115.29 168.687C115.967 168.264 116.898 168.278 117.576 168.715C117.886 168.927 117.816 168.913 118.239 169.223C118.719 169.618 119.565 169.675 120.102 169.223L124.208 166.669L128.244 164.101C128.837 163.734 129.076 163 129.062 162.421C128.921 161.815 128.907 161.885 128.893 161.589C128.78 160.841 129.119 159.994 129.881 159.529C130.798 158.95 132.11 159.19 132.689 160.107C132.901 160.446 133.056 160.7 133.211 160.94C134.411 162.873 133.804 165.455 131.856 166.725L126.325 170.253Z" fill="#48D6D5"/>
<path d="M116.235 154.209L120.342 151.655C120.934 151.288 121.626 151.386 122.134 151.64C122.317 151.753 122.684 152.05 122.797 152.148C123.46 152.656 124.335 152.656 125.154 152.191C126.071 151.612 126.452 150.342 125.873 149.425C125.662 149.086 125.506 148.832 125.351 148.592C124.152 146.659 121.569 146.066 119.565 147.238L114.118 150.624L108.672 154.011C106.738 155.211 106.146 157.793 107.317 159.797C107.528 160.135 107.684 160.389 107.839 160.629C108.474 161.575 109.772 161.871 110.647 161.208C111.324 160.785 111.748 159.881 111.649 159.077C111.635 158.851 111.508 158.47 111.48 158.245C111.409 157.652 111.72 156.932 112.284 156.636L116.235 154.209Z" fill="#48D6D5"/>
<path d="M107.726 165.117C106.555 165.851 106.188 167.417 106.922 168.588C107.655 169.759 109.222 170.126 110.393 169.393C113.752 167.304 113.582 167.417 116.941 165.328C118.112 164.595 118.479 163.028 117.745 161.857C117.011 160.686 115.445 160.319 114.274 161.053C110.972 163.226 111.141 163.127 107.726 165.117Z" fill="#48D6D5"/>
<path d="M123.474 155.465C122.303 156.198 121.936 157.765 122.67 158.936C123.404 160.107 124.97 160.474 126.141 159.74C129.5 157.652 129.33 157.765 132.689 155.676C133.86 154.943 134.227 153.376 133.493 152.205C132.759 151.034 131.193 150.667 130.022 151.401C126.663 153.489 126.776 153.292 123.474 155.465Z" fill="#48D6D5"/>
</g>
<defs>
<clipPath id="clip0">
<rect width="200" height="200" fill="white"/>
</clipPath>
</defs>
</svg>
