<svg width="320" height="320" viewBox="0 0 320 320" fill="none" xmlns="http://www.w3.org/2000/svg">
<rect width="320" height="320" fill="#F4F5F9"/>
<g clip-path="url(#clip0_16644_7697)">
<path fill-rule="evenodd" clip-rule="evenodd" d="M88.5368 175.293C88.9528 175.293 89.577 175.293 89.9931 175.084C90.4092 174.874 90.8252 174.665 91.2413 174.246C91.6574 173.827 91.8655 173.617 92.0735 172.989C92.2816 172.57 92.2816 172.151 92.2816 171.522V153.296C92.2816 152.877 92.2816 152.249 92.0735 151.83C91.8655 151.411 91.6574 150.992 91.2413 150.573C90.8252 150.154 90.4092 149.944 89.9931 149.735C89.577 149.525 89.1609 149.525 88.5368 149.525C87.9126 149.525 87.7046 149.735 87.0804 149.944C86.6644 150.154 86.2483 150.363 85.8322 150.782C85.4161 151.201 85.4161 151.62 85.208 152.039C85 152.458 85 153.087 85 153.506V171.732C85 172.779 85.4161 173.617 86.0402 174.246C86.6644 174.874 87.7046 175.293 88.5368 175.293Z" fill="#D7DDEC"/>
<path fill-rule="evenodd" clip-rule="evenodd" d="M88.5368 138.841C89.577 138.841 90.4092 138.422 91.0333 137.793C91.6574 137.165 92.0735 136.117 92.0735 135.279V117.053C92.0735 116.215 91.6574 115.377 91.0333 114.749C90.4092 114.12 89.577 113.701 88.5368 113.701C87.7046 113.701 86.6644 114.12 86.0402 114.749C85.4161 115.168 85 116.006 85 117.053V135.279C85 136.327 85.4161 137.165 86.0402 137.793C86.6644 138.422 87.7046 138.841 88.5368 138.841Z" fill="#D7DDEC"/>
<path fill-rule="evenodd" clip-rule="evenodd" d="M150.325 91.2849C150.741 91.7039 151.158 91.9134 151.574 92.1229C151.99 92.3324 152.406 92.3324 152.822 92.3324C152.822 92.3324 152.822 92.3324 153.03 92.3324H171.13C171.962 92.3324 172.794 91.9134 173.418 91.2849C174.042 90.4469 174.459 89.6089 174.459 88.5615C174.459 87.7235 174.042 86.676 173.418 86.0475C172.794 85.419 171.962 85 171.13 85H153.03C152.614 85 151.99 85 151.574 85.2095C151.158 85.419 150.741 85.6285 150.325 86.0475C149.909 86.257 149.701 86.676 149.493 87.095C149.285 87.514 149.285 88.1425 149.285 88.5615C149.285 88.9804 149.285 89.6089 149.493 90.0279C149.701 90.4469 149.909 90.8659 150.325 91.2849Z" fill="#D7DDEC"/>
<path fill-rule="evenodd" clip-rule="evenodd" d="M98.7309 196.453H92.2816V189.958C92.2816 189.12 91.8655 188.282 91.2413 187.654C90.6172 187.025 89.785 186.606 88.7448 186.606C87.9126 186.606 86.8724 187.025 86.2483 187.654C85.4161 188.282 85 189.12 85 189.958V200.014C85 201.061 85.4161 201.899 86.0402 202.528C86.6644 203.156 87.7046 203.575 88.5368 203.575H98.5229C99.3551 203.575 100.187 203.156 100.811 202.528C101.436 201.899 101.852 201.061 101.852 200.014C101.852 199.176 101.436 198.128 100.811 197.5C100.395 196.872 99.5631 196.453 98.7309 196.453Z" fill="#D7DDEC"/>
<path fill-rule="evenodd" clip-rule="evenodd" d="M98.7309 85H88.5368C87.7046 85 87.0804 85.2095 86.4563 85.838C86.2483 85.838 86.2483 86.0475 86.0402 86.0475C85.4161 86.676 85 87.7235 85 88.5615V98.6173C85 99.6648 85.4161 100.712 86.0402 101.341C86.6644 101.969 87.7046 102.388 88.5368 102.388C88.9528 102.388 89.577 102.388 89.9931 102.179C90.4092 101.969 90.8252 101.76 91.2413 101.341C91.6574 100.922 91.8655 100.712 92.0735 100.084C92.0735 99.8743 92.2816 99.6648 92.2816 99.4553C92.2816 99.2458 92.4896 99.0363 92.4896 98.6173V92.3324H98.939C99.7712 92.3324 100.603 91.9134 101.227 91.2849C101.644 90.4469 102.06 89.6089 102.06 88.5615C102.06 87.7235 101.644 86.676 101.019 86.0475C100.395 85.419 99.5631 85 98.7309 85Z" fill="#D7DDEC"/>
<path fill-rule="evenodd" clip-rule="evenodd" d="M186.734 91.2849C187.15 91.7039 187.358 91.9134 187.982 92.1229C188.606 92.3324 188.814 92.3324 189.438 92.3324H195.888V98.8268C195.888 99.6648 196.304 100.503 196.928 101.131C197.552 101.76 198.384 102.179 199.424 102.179C200.256 102.179 201.297 101.76 201.921 101.131C202.545 100.503 202.961 99.6648 202.961 98.8268V88.5615C202.961 87.514 202.545 86.676 201.921 86.0475C201.089 85.419 200.256 85 199.216 85H189.23C188.19 85 187.358 85.419 186.734 86.0475C186.109 86.676 185.693 87.7235 185.693 88.5615C185.693 88.9804 185.693 89.6089 185.901 90.0279C186.109 90.4469 186.317 90.8659 186.734 91.2849Z" fill="#D7DDEC"/>
<path fill-rule="evenodd" clip-rule="evenodd" d="M136.387 92.1229C136.803 91.9134 137.219 91.7039 137.635 91.2849C138.051 90.8659 138.259 90.4469 138.467 90.0279C138.675 89.6089 138.675 88.9804 138.675 88.5615C138.675 88.1425 138.675 87.514 138.467 87.095C138.259 86.676 138.051 86.257 137.635 85.838C137.219 85.419 136.803 85.2095 136.387 85C135.763 85 135.347 85 134.931 85H116.831C116.831 85 116.831 85 116.623 85C115.791 85 114.958 85.419 114.126 86.0475C113.502 86.676 113.086 87.7235 113.086 88.5615C113.086 88.9804 113.086 89.6089 113.294 90.0279C113.71 90.4469 113.918 90.8659 114.126 91.2849C114.542 91.7039 114.75 91.9134 115.374 92.1229C115.999 92.3324 116.207 92.3324 116.831 92.3324H134.931C135.347 92.3324 135.763 92.1229 136.387 92.1229Z" fill="#D7DDEC"/>
<path fill-rule="evenodd" clip-rule="evenodd" d="M234.583 118.52C234.375 118.101 234.167 117.682 233.751 117.263C233.335 116.844 233.127 116.634 232.503 116.425C232.295 116.425 231.879 116.425 231.255 116.425H202.752C202.544 115.796 202.128 115.168 201.712 114.749C201.088 114.12 200.256 113.701 199.216 113.701C198.383 113.701 197.343 114.12 196.719 114.749C196.303 115.168 195.887 115.796 195.679 116.425H179.243H172.378H120.575C120.159 116.425 119.535 116.425 119.119 116.634C118.702 116.844 118.286 117.053 117.87 117.472C117.454 117.891 117.246 118.31 117.038 118.729C116.83 119.148 116.83 119.567 116.83 120.196V231.648C116.83 232.696 117.246 233.534 117.87 234.162C118.494 234.79 119.535 235.209 120.367 235.209H231.046C232.087 235.209 232.919 234.79 233.543 234.162C234.167 233.534 234.583 232.486 234.583 231.648V167.961V119.986C234.999 119.567 234.791 118.939 234.583 118.52ZM227.718 163.352V191.844V202.109V218.031V227.668H124.32V218.031V209.651V199.595V133.394V123.547H173.21H179.035H227.926V163.352H227.718Z" fill="#D7DDEC"/>
<path fill-rule="evenodd" clip-rule="evenodd" d="M170.714 140.726L137.01 174.455C135.762 175.712 135.762 177.598 137.01 178.855L172.586 214.888C173.834 216.145 175.707 216.145 176.955 214.888L210.45 181.159C211.074 180.531 211.49 179.693 211.282 178.855V143.869C211.282 142.193 208.786 139.888 207.121 139.888H172.378C171.962 139.679 171.13 140.098 170.714 140.726ZM195.055 152.039C196.303 150.782 198.175 150.782 199.424 152.039C200.672 153.296 200.672 155.182 199.424 156.439C198.175 157.696 196.303 157.696 195.055 156.439C193.807 155.391 193.807 153.296 195.055 152.039Z" fill="#D7DDEC"/>
</g>
<defs>
<clipPath id="clip0_16644_7697">
<rect width="150" height="150" fill="white" transform="translate(85 85)"/>
</clipPath>
</defs>
</svg>
