<svg width="17" height="2" viewBox="0 0 17 2" fill="none" xmlns="http://www.w3.org/2000/svg">
<path fill-rule="evenodd" clip-rule="evenodd" d="M15.9854 0C16.2506 0 16.5049 0.105356 16.6925 0.292892C16.88 0.480429 16.9854 0.734784 16.9854 1C16.9854 1.26522 16.88 1.51957 16.6925 1.70711C16.5049 1.89464 16.2506 2 15.9854 2C6.91755 2 10.416 2 1.98535 2C1.72014 2 1.46578 1.89464 1.27824 1.70711C1.09071 1.51957 0.985352 1.26522 0.985352 1C0.985352 0.734784 1.09071 0.480429 1.27824 0.292892C1.46578 0.105356 1.72014 0 1.98535 0C10.4214 0 6.92767 0 15.9854 0Z" fill="#1F3447"/>
</svg>
