<?xml version="1.0" encoding="utf-8"?>
<!-- Generator: Adobe Illustrator 24.2.3, SVG Export Plug-In . SVG Version: 6.00 Build 0)  -->
<svg version="1.1" id="Capa_1" xmlns="http://www.w3.org/2000/svg" xmlns:xlink="http://www.w3.org/1999/xlink" x="0px" y="0px"
	 viewBox="-33 140.9 480 512.1" style="enable-background:new -33 140.9 480 512.1;" xml:space="preserve">
<style type="text/css">
	.st0{fill:#2196F3;}
	.st1{fill:#FFC107;}
	.st2{fill:#4CAF50;}
	.st3{fill:#F44336;}
</style>
<path class="st0" d="M233,386.8L-14.7,634.4C-26.6,623.2-33,607.9-33,591.2V202.8c0-17,6.7-32.3,18.9-43.8L233,386.8z"/>
<path class="st1" d="M447,397c0,22.4-12.2,42.2-32.3,53.4l-70.4,39L257,408.8l-24-22.1l92.5-92.5l89.3,49.3
	C434.9,354.8,447,374.6,447,397z"/>
<path class="st2" d="M233,386.8l-247-227.8c3.2-3.2,7.4-6.1,11.5-8.6c20.2-12.2,44.5-12.5,65.3-1l262.7,145L233,386.8z"/>
<path class="st3" d="M344.3,489.5L62.7,644.7c-9.9,5.8-21.1,8.3-32,8.3c-11.5,0-23-2.9-33.3-9.3c-4.5-2.6-8.6-5.8-12.2-9.3
	L233,386.8l24,22.1L344.3,489.5z"/>
</svg>
