<svg width="17" height="16" viewBox="0 0 17 16" fill="none" xmlns="http://www.w3.org/2000/svg">
<path fill-rule="evenodd" clip-rule="evenodd" d="M8.98535 0C9.25057 0 9.50492 0.105357 9.69246 0.292893C9.88 0.48043 9.98535 0.734784 9.98535 1V7H15.9854C16.2506 7 16.5049 7.10536 16.6925 7.29289C16.88 7.48043 16.9854 7.73478 16.9854 8C16.9854 8.26522 16.88 8.51957 16.6925 8.70711C16.5049 8.89464 16.2506 9 15.9854 9H9.98535V15C9.98535 15.2652 9.88 15.5196 9.69246 15.7071C9.50492 15.8946 9.25057 16 8.98535 16C8.72014 16 8.46578 15.8946 8.27824 15.7071C8.09071 15.5196 7.98535 15.2652 7.98535 15V9H1.98535C1.72014 9 1.46578 8.89464 1.27824 8.70711C1.09071 8.51957 0.985352 8.26522 0.985352 8C0.985352 7.73478 1.09071 7.48043 1.27824 7.29289C1.46578 7.10536 1.72014 7 1.98535 7H7.98535V1C7.98535 0.734784 8.09071 0.48043 8.27824 0.292893C8.46578 0.105357 8.72014 0 8.98535 0Z" fill="#1F3447"/>
</svg>
