<svg version="1.1" id="Слой_1" xmlns="http://www.w3.org/2000/svg" xmlns:xlink="http://www.w3.org/1999/xlink" x="0" y="0" viewBox="0 0 60 60" xml:space="preserve"><style>.st1{fill:#fff}</style><defs><path id="SVGID_1_" d="M0 0h60v60H0z"/></defs><clipPath id="SVGID_2_"><use xlink:href="#SVGID_1_" overflow="visible"/></clipPath><g clip-path="url(#SVGID_2_)"><path class="st1" d="M57.6 34.3h-18c-1.3 0-2.4 1.1-2.4 2.5v20.8c0 1.4 1.1 2.5 2.4 2.5h18c1.3 0 2.4-1.1 2.4-2.5V36.7c0-1.3-1.1-2.4-2.4-2.4zm-2.4 20.8H42V39.2h13.1v15.9zM2.6 23.3h8.2c1.4 0 2.5-1.1 2.5-2.5s-1.1-2.5-2.5-2.5H5.1V5h12.8v9.2c0 1.4 1.1 2.5 2.5 2.5s2.5-1.1 2.5-2.5V2.5C23 1.1 21.8 0 20.4 0H2.6C1.9 0 1.2.3.7.7.3 1.2 0 1.8 0 2.5v18.4c0 1.3 1.2 2.4 2.6 2.4zM2.5 60h15.4c1.4 0 2.5-1.1 2.5-2.5v-15c0-1.4-1.1-2.5-2.5-2.5H2.5C1.1 40 0 41.1 0 42.5v15C0 58.9 1.1 60 2.5 60zm2.6-15h10.3v10.1H5.1V45z"/><path class="st1" d="M28.7 56.7c1.3 0 2.4-1.1 2.4-2.5V28.3h26.4c1.3 0 2.4-1.1 2.4-2.5s-1.1-2.5-2.4-2.5H28.7c-.6 0-1.3.3-1.7.7-.5.5-.7 1.1-.7 1.7v28.4c0 1.5 1.1 2.6 2.4 2.6zM2.4 34.2h16.3c1.3 0 2.4-1.1 2.4-2.5v-5c0-1.4-1.1-2.5-2.4-2.5-1.3 0-2.4 1.1-2.4 2.5v2.5H2.4c-1.3 0-2.4 1.1-2.4 2.5s1.1 2.5 2.4 2.5zM30.4 18c1.3 0 2.4-1.1 2.4-2.5V7.2c0-1.4-1.1-2.5-2.4-2.5-.7 0-1.3.3-1.7.7-.5.6-.7 1.2-.7 1.8v8.4c0 1.3 1 2.4 2.4 2.4zM40.4 18.3h17.2c1.3 0 2.4-1.1 2.4-2.5V2.5C60 1.1 58.9 0 57.6 0H40.4C39.1 0 38 1.1 38 2.5v13.4c0 1.3 1.1 2.4 2.4 2.4zm2.4-13.4h12.3v8.4H42.8V4.9z"/></g></svg>