<svg version="1.1" xmlns="http://www.w3.org/2000/svg" xmlns:xlink="http://www.w3.org/1999/xlink" width="34" height="20" viewBox="0 0 34 20">
<g id="ic_arrow_up">
<path id="Arrow-copy" d="M33.014,18.881 C31.669,20.204 29.491,20.204 28.146,18.881 C28.146,18.881 17.097,8.042 17.097,8.042 C17.097,8.042 5.901,19.019 5.901,19.019 C4.559,20.342 2.381,20.342 1.036,19.019 C-0.309,17.696 -0.309,15.551 1.036,14.226 C1.036,14.226 14.530,0.996 14.530,0.996 C15.236,0.301 16.172,-0.019 17.097,0.017 C18.022,-0.019 18.958,0.301 19.664,0.996 C19.664,0.996 33.014,14.088 33.014,14.088 C34.359,15.413 34.359,17.558 33.014,18.881 z" fill="#ffffff" />
</g>
</svg>
