<svg width="24" height="24" viewBox="0 0 24 24" fill="none" xmlns="http://www.w3.org/2000/svg">
<g clip-path="url(#clip0_22545_15598)">
<path d="M21.531 13H15.469C14.1054 13 13 14.1054 13 15.469V21.531C13 22.8946 14.1054 24 15.469 24H21.531C22.8946 24 24 22.8946 24 21.531V15.469C24 14.1054 22.8946 13 21.531 13Z" fill="#0B86CA"/>
<path d="M16.0483 17.572H17.1913V21.2602H16.0483V17.572ZM16.6312 15.7393C16.7622 15.7393 16.8902 15.778 16.9992 15.8507C17.1081 15.9234 17.1931 16.0267 17.2434 16.1476C17.2937 16.2686 17.307 16.4017 17.2817 16.5302C17.2565 16.6587 17.1937 16.7768 17.1014 16.8697C17.009 16.9625 16.8913 17.026 16.7629 17.052C16.6346 17.078 16.5014 17.0654 16.3802 17.0158C16.259 16.9662 16.1552 16.8818 16.0819 16.7733C16.0085 16.6648 15.969 16.537 15.9683 16.406C15.9678 16.3187 15.9845 16.232 16.0176 16.1512C16.0507 16.0703 16.0995 15.9967 16.1611 15.9348C16.2227 15.8728 16.296 15.8236 16.3767 15.7901C16.4573 15.7565 16.5439 15.7393 16.6312 15.7393Z" fill="white"/>
<path d="M17.9228 17.5723H19.0239V18.0753C19.1341 17.8872 19.2934 17.7325 19.4846 17.6278C19.6759 17.5232 19.8919 17.4724 20.1098 17.4809C21.2529 17.4809 21.4853 18.2429 21.4853 19.2374V21.2606H20.3422V19.4774C20.3422 19.0507 20.3422 18.4982 19.7478 18.4982C19.1534 18.4982 19.062 18.9631 19.062 19.4431V21.2682H17.9189L17.9228 17.5723Z" fill="white"/>
<path d="M9.625 0H1.375C0.616687 0 0 0.616687 0 1.375V9.625C0 10.3833 0.616687 11 1.375 11H9.625C10.3833 11 11 10.3833 11 9.625V1.375C11 0.616687 10.3833 0 9.625 0Z" fill="#1976D2"/>
<path fill-rule="evenodd" clip-rule="evenodd" d="M9.28125 5.5H7.5625V4.125C7.5625 3.7455 7.8705 3.78125 8.25 3.78125H8.9375V2.0625H7.5625C7.01549 2.0625 6.49089 2.2798 6.10409 2.66659C5.7173 3.05339 5.5 3.57799 5.5 4.125V5.5H4.125V7.21875H5.5V11H7.5625V7.21875H8.59375L9.28125 5.5Z" fill="#FAFAFA"/>
<path d="M8.531 13H2.469C1.10541 13 0 14.1054 0 15.469V21.531C0 22.8946 1.10541 24 2.469 24H8.531C9.89459 24 11 22.8946 11 21.531V15.469C11 14.1054 9.89459 13 8.531 13Z" fill="url(#paint0_linear_22545_15598)"/>
<path d="M4.49163 21.0207C4.31288 21.0207 4.34497 20.952 4.2808 20.7824L3.7583 19.059L7.0033 17.0332L7.38372 17.134L7.06747 17.9957L4.49163 21.0207Z" fill="#C8DAEA"/>
<path d="M4.4917 21.0206C4.6292 21.0206 4.68878 20.9565 4.7667 20.8831C4.88587 20.7686 6.4167 19.279 6.4167 19.279L5.47712 19.0498L4.60628 19.5998L4.4917 20.9748V21.0206Z" fill="#A9C9DD"/>
<path d="M4.58355 19.6183L6.80188 21.2545C7.05397 21.392 7.2373 21.3233 7.30147 21.0208L8.20438 16.7674C8.29605 16.3962 8.0623 16.2312 7.81938 16.3412L2.52105 18.3854C2.15897 18.532 2.16355 18.7337 2.45688 18.8208L3.81813 19.247L6.96688 17.2624C7.11355 17.1708 7.25105 17.2212 7.14105 17.322L4.58355 19.6183Z" fill="url(#paint1_linear_22545_15598)"/>
<g clip-path="url(#clip1_22545_15598)">
<path d="M21.6534 0H15.3467C14.0506 0 13 1.05064 13 2.34666V8.65335C13 9.94938 14.0506 11 15.3467 11H21.6534C22.9494 11 24 9.94938 24 8.65335V2.34666C24 1.05064 22.9494 0 21.6534 0Z" fill="#0A93E2"/>
<path fill-rule="evenodd" clip-rule="evenodd" d="M21.8462 3.83111C21.6092 3.93615 21.3541 4.0074 21.0868 4.0392C21.3599 3.87538 21.5693 3.61638 21.6685 3.30769C21.4129 3.45897 21.1297 3.56918 20.8287 3.62847C20.5875 3.37133 20.2436 3.21094 19.8632 3.21094C19.1327 3.21094 18.541 3.80326 18.541 4.53316C18.541 4.6367 18.5525 4.73793 18.5751 4.83468C17.4763 4.77933 16.5017 4.25295 15.8497 3.45268C15.7356 3.64819 15.6706 3.87538 15.6706 4.11761C15.6706 4.57656 15.9041 4.98148 16.2585 5.21843C16.0418 5.21165 15.8381 5.15197 15.6595 5.05273C15.6595 5.05853 15.6595 5.06384 15.6595 5.06964C15.6595 5.71005 16.1155 6.24454 16.7203 6.36597C16.6096 6.3963 16.4926 6.41269 16.3721 6.41269C16.287 6.41269 16.2041 6.40444 16.1231 6.38903C16.2918 6.91441 16.7801 7.29668 17.3588 7.30727C16.9062 7.66216 16.336 7.87308 15.7163 7.87308C15.6093 7.87308 15.5039 7.86731 15.4009 7.85483C15.9859 8.22995 16.6808 8.44901 17.4276 8.44901C19.8599 8.44901 21.1904 6.43377 21.1904 4.68638C21.1904 4.62907 21.1889 4.57222 21.1866 4.5154C21.4451 4.32901 21.669 4.09601 21.8462 3.8311L21.8462 3.83111Z" fill="white"/>
</g>
</g>
<defs>
<linearGradient id="paint0_linear_22545_15598" x1="7.11196" y1="14.7385" x2="4.36196" y2="21.155" gradientUnits="userSpaceOnUse">
<stop stop-color="#37AEE2"/>
<stop offset="1" stop-color="#1E96C8"/>
</linearGradient>
<linearGradient id="paint1_linear_22545_15598" x1="5.9123" y1="18.672" x2="7.05814" y2="20.5054" gradientUnits="userSpaceOnUse">
<stop stop-color="#EFF7FC"/>
<stop offset="1" stop-color="white"/>
</linearGradient>
<clipPath id="clip0_22545_15598">
<rect width="24" height="24" fill="white"/>
</clipPath>
<clipPath id="clip1_22545_15598">
<rect width="11" height="11" fill="white" transform="translate(13)"/>
</clipPath>
</defs>
</svg>
